<svg width="200" height="40" viewBox="0 0 200 40" fill="none" xmlns="http://www.w3.org/2000/svg">
<path d="M17.316 16.424C17.2813 16.9093 17.2467 17.464 17.212 18.088C17.212 18.6773 17.212 19.336 17.212 20.064C17.212 20.5147 17.212 21.0867 17.212 21.78C17.2467 22.4733 17.2987 23.184 17.368 23.912C17.472 25.056 17.68 26.1133 17.992 27.084C18.3387 28.02 18.876 28.488 19.604 28.488C20.124 28.488 20.4533 28.5053 20.592 28.54C20.7653 28.5747 20.852 28.6787 20.852 28.852C20.852 29.06 20.748 29.216 20.54 29.32C20.332 29.4587 20.1067 29.5453 19.864 29.58C19.6907 29.6147 19.5173 29.632 19.344 29.632C19.2053 29.6667 19.1013 29.684 19.032 29.684C17.5413 29.684 16.588 28.748 16.172 26.876C15.756 24.9693 15.548 22.872 15.548 20.584C15.548 20.5493 15.548 20.532 15.548 20.532C15.548 20.4973 15.548 20.4627 15.548 20.428C15.548 19.8387 15.548 19.2667 15.548 18.712C15.548 18.1227 15.5653 17.5507 15.6 16.996C15.3573 17.0653 15.0973 17.152 14.82 17.256C14.5773 17.36 14.3173 17.4813 14.04 17.62C13.9707 17.6547 13.884 17.6893 13.78 17.724C13.7107 17.7587 13.6413 17.7933 13.572 17.828C13.1213 18.0013 12.7053 18.1747 12.324 18.348C11.9427 18.5213 11.6653 18.66 11.492 18.764C11.4573 18.764 11.336 18.816 11.128 18.92C10.9547 18.9893 10.7467 19.076 10.504 19.18C10.2613 19.3187 10.036 19.44 9.828 19.544C9.62 19.6133 9.516 19.648 9.516 19.648C9.412 19.648 9.32533 19.6133 9.256 19.544C9.18667 19.44 9.11733 19.336 9.048 19.232C9.01333 19.1627 8.97867 19.0933 8.944 19.024C8.944 18.9547 8.944 18.9027 8.944 18.868C8.944 18.8333 8.944 18.816 8.944 18.816C8.944 18.7813 8.944 18.764 8.944 18.764C8.97867 18.66 9.152 18.5213 9.464 18.348C9.776 18.1747 10.504 17.828 11.648 17.308C12.2373 17.0307 12.792 16.788 13.312 16.58C13.832 16.3373 14.352 16.112 14.872 15.904C15.0107 15.8693 15.132 15.8173 15.236 15.748C15.3747 15.6787 15.5133 15.6267 15.652 15.592C15.652 15.3493 15.6867 14.7773 15.756 13.876C15.8253 12.94 15.8947 11.9347 15.964 10.86C16.068 9.716 16.172 8.65867 16.276 7.688C16.38 6.71733 16.5013 6.18 16.64 6.076C16.744 6.00666 16.8827 5.93733 17.056 5.868C17.2293 5.79867 17.4027 5.72933 17.576 5.66C17.784 5.59067 17.9747 5.53867 18.148 5.504C18.356 5.46933 18.4947 5.452 18.564 5.452C18.6333 5.452 18.6853 5.46933 18.72 5.504C18.7547 5.504 18.772 5.53867 18.772 5.608C18.772 5.64267 18.772 5.67733 18.772 5.712C18.772 5.74667 18.772 5.78133 18.772 5.816C18.7373 6.16267 18.5987 6.66533 18.356 7.324C18.148 7.948 17.9227 9.36933 17.68 11.588C17.6453 12.0733 17.5933 12.6107 17.524 13.2C17.4893 13.7547 17.4373 14.3787 17.368 15.072C19.1013 14.6213 20.4187 14.344 21.32 14.24C22.256 14.136 23.0533 14.084 23.712 14.084C23.8507 14.084 24.0587 14.084 24.336 14.084C24.6133 14.084 24.908 14.1187 25.22 14.188C25.636 14.2573 26.0173 14.3787 26.364 14.552C26.7107 14.7253 26.884 14.9853 26.884 15.332C26.884 15.6093 26.7627 15.852 26.52 16.06C26.2773 16.268 26.0173 16.3893 25.74 16.424C25.7053 16.424 25.6707 16.424 25.636 16.424C25.636 16.424 25.6187 16.424 25.584 16.424C25.3413 16.424 25.168 16.372 25.064 16.268C24.96 16.1293 24.8733 15.9733 24.804 15.8C24.804 15.7653 24.804 15.748 24.804 15.748C24.7347 15.644 24.6307 15.5573 24.492 15.488C24.388 15.384 24.076 15.332 23.556 15.332C23.1053 15.332 22.62 15.3667 22.1 15.436C21.6147 15.4707 21.1293 15.54 20.644 15.644C20.1587 15.748 19.6733 15.852 19.188 15.956C18.7027 16.06 18.2347 16.164 17.784 16.268C17.7147 16.3027 17.628 16.3373 17.524 16.372C17.4547 16.372 17.3853 16.3893 17.316 16.424ZM31.564 3.164C31.564 3.23333 31.5467 3.30267 31.512 3.372C31.512 3.40667 31.512 3.45867 31.512 3.528C31.408 3.70133 31.2693 3.87467 31.096 4.048C30.9573 4.22133 30.8013 4.37733 30.628 4.516C30.4893 4.62 30.3507 4.70667 30.212 4.776C30.0733 4.84533 29.952 4.88 29.848 4.88C29.7787 4.88 29.7267 4.88 29.692 4.88C29.6573 4.84533 29.6227 4.79333 29.588 4.724C29.5533 4.65467 29.5187 4.55067 29.484 4.412C29.4493 4.27333 29.3973 4.06533 29.328 3.788C29.1547 3.12933 28.756 2.71333 28.132 2.54C27.508 2.332 26.832 2.228 26.104 2.228C26.0693 2.228 26.0347 2.228 26 2.228C25.9653 2.228 25.9307 2.228 25.896 2.228C24.96 2.228 23.9893 2.29733 22.984 2.436C22.0133 2.54 21.0427 2.696 20.072 2.904C17.472 3.45867 14.9413 4.27333 12.48 5.348C10.0187 6.388 7.86933 7.48 6.032 8.624C5.23467 9.10933 4.50667 9.59467 3.848 10.08C3.224 10.5653 2.68667 11.0333 2.236 11.484C1.88933 11.796 1.64667 11.9867 1.508 12.056C1.36933 12.1253 1.248 12.16 1.144 12.16C0.970667 12.16 0.814667 12.108 0.676 12.004C0.572 11.9 0.485333 11.7787 0.416 11.64C0.381333 11.5707 0.346667 11.5187 0.312 11.484C0.312 11.4147 0.312 11.3627 0.312 11.328C0.312 11.016 0.745333 10.5307 1.612 9.872C2.47867 9.17867 3.536 8.45067 4.784 7.688C5.2 7.44533 5.616 7.20267 6.032 6.96C6.48267 6.68267 6.916 6.44 7.332 6.232C7.644 6.05867 7.956 5.90267 8.268 5.764C8.58 5.59067 8.87467 5.43467 9.152 5.296C11.7173 4.048 14.3693 3.008 17.108 2.176C19.8813 1.344 22.6893 0.927998 25.532 0.927998C26.4333 0.927998 27.3 0.979998 28.132 1.084C28.964 1.188 29.6747 1.41333 30.264 1.76C30.2987 1.79467 30.368 1.84667 30.472 1.916C30.6107 1.98533 30.7493 2.072 30.888 2.176C31.0613 2.31467 31.2173 2.47067 31.356 2.644C31.4947 2.81733 31.564 2.99067 31.564 3.164ZM37.6017 14.344C37.6017 14.2747 37.5844 14.1707 37.5497 14.032C37.515 13.8587 37.4804 13.6853 37.4457 13.512C37.4457 13.512 37.4284 13.512 37.3937 13.512C37.3937 13.4773 37.3937 13.46 37.3937 13.46C37.359 13.252 37.3244 13.0613 37.2897 12.888C37.255 12.7147 37.2377 12.6107 37.2377 12.576C37.2377 12.368 37.3244 12.1947 37.4977 12.056C37.671 11.9173 37.8617 11.8133 38.0697 11.744C38.2084 11.6747 38.3297 11.64 38.4337 11.64C38.5724 11.6053 38.6764 11.588 38.7457 11.588C38.9884 11.588 39.1444 11.64 39.2137 11.744C39.283 11.848 39.3177 11.9693 39.3177 12.108C39.3177 12.1427 39.3177 12.1773 39.3177 12.212C39.3177 12.2467 39.3177 12.2813 39.3177 12.316C39.3177 13.1133 39.3524 13.9973 39.4217 14.968C39.491 15.9387 39.595 16.9267 39.7337 17.932C39.9764 19.7 40.2884 21.364 40.6697 22.924C41.051 24.4493 41.4497 25.4893 41.8657 26.044C41.9004 26.0787 41.9697 26.148 42.0737 26.252C42.1777 26.3213 42.299 26.408 42.4377 26.512C42.4724 26.512 42.507 26.5293 42.5417 26.564C42.6457 26.668 42.7497 26.772 42.8537 26.876C42.9577 26.9453 43.0097 26.9973 43.0097 27.032C43.0097 27.0667 42.9924 27.1187 42.9577 27.188C42.9577 27.2227 42.9404 27.2747 42.9057 27.344C42.8364 27.4133 42.7497 27.4827 42.6457 27.552C42.5417 27.6213 42.403 27.656 42.2297 27.656C41.7444 27.656 41.3284 27.5173 40.9817 27.24C40.635 26.9627 40.375 26.6333 40.2017 26.252C40.063 26.044 39.9417 25.836 39.8377 25.628C39.7684 25.3853 39.7164 25.1947 39.6817 25.056C39.5777 24.8133 39.4564 24.4493 39.3177 23.964C39.179 23.444 39.023 22.8373 38.8497 22.144C38.7457 21.624 38.6417 21.0693 38.5377 20.48C38.4337 19.856 38.3297 19.1973 38.2257 18.504C38.0177 18.8853 37.6364 19.492 37.0817 20.324C36.5617 21.1213 35.9724 21.9533 35.3137 22.82C35.071 23.132 34.8284 23.444 34.5857 23.756C34.343 24.068 34.1004 24.3627 33.8577 24.64C33.199 25.4373 32.5404 26.1133 31.8817 26.668C31.2577 27.2227 30.7204 27.5 30.2697 27.5C30.2004 27.5 30.0964 27.5 29.9577 27.5C29.8537 27.5 29.7497 27.4653 29.6457 27.396C29.4724 27.3267 29.299 27.2053 29.1257 27.032C28.987 26.8587 28.9177 26.616 28.9177 26.304C28.9177 25.68 29.091 24.8827 29.4377 23.912C29.819 22.9413 30.287 21.936 30.8417 20.896C31.2924 20.0987 31.7777 19.3187 32.2977 18.556C32.8524 17.7587 33.407 17.048 33.9617 16.424C34.551 15.7653 35.123 15.2453 35.6777 14.864C36.267 14.448 36.787 14.24 37.2377 14.24C37.307 14.24 37.3764 14.2573 37.4457 14.292C37.515 14.292 37.567 14.3093 37.6017 14.344ZM37.7057 16.528C37.7057 16.32 37.6364 16.1467 37.4977 16.008C37.3937 15.8347 37.2204 15.748 36.9777 15.748C36.631 15.748 36.1977 15.9907 35.6777 16.476C35.1924 16.9267 34.6897 17.516 34.1697 18.244C33.8577 18.6253 33.5457 19.0413 33.2337 19.492C32.9564 19.9427 32.6964 20.3933 32.4537 20.844C31.8644 21.8147 31.379 22.7507 30.9977 23.652C30.6164 24.5533 30.4257 25.1947 30.4257 25.576C30.4257 25.576 30.4257 25.5933 30.4257 25.628C30.4257 25.6627 30.4257 25.68 30.4257 25.68C30.4604 25.7493 30.495 25.8013 30.5297 25.836C30.5644 25.8707 30.599 25.888 30.6337 25.888C30.8764 25.888 31.327 25.524 31.9857 24.796C32.6444 24.068 33.355 23.2187 34.1177 22.248C34.2564 22.0747 34.395 21.9013 34.5337 21.728C34.6724 21.52 34.811 21.3293 34.9497 21.156C35.6777 20.116 36.319 19.1627 36.8737 18.296C37.4284 17.3947 37.7057 16.8053 37.7057 16.528ZM54.1844 19.648C53.9764 20.064 53.6991 20.5147 53.3524 21C53.0404 21.4853 52.6937 21.9707 52.3124 22.456C51.8964 22.9067 51.4631 23.3573 51.0124 23.808C50.5964 24.2587 50.1804 24.6747 49.7644 25.056C48.8977 25.8533 48.0657 26.512 47.2684 27.032C46.4711 27.5173 45.8644 27.76 45.4484 27.76C45.3791 27.76 45.3097 27.7427 45.2404 27.708C45.2057 27.708 45.1537 27.708 45.0844 27.708C44.8764 27.6387 44.7031 27.5347 44.5644 27.396C44.4257 27.2573 44.3564 27.0493 44.3564 26.772C44.3564 26.0787 44.5124 25.2293 44.8244 24.224C45.1711 23.2187 45.6044 22.196 46.1244 21.156C46.4711 20.4627 46.8351 19.7867 47.2164 19.128C47.6324 18.4347 48.0484 17.7933 48.4644 17.204C49.1577 16.164 49.8164 15.332 50.4404 14.708C51.0991 14.084 51.6191 13.8587 52.0004 14.032C51.8617 13.7547 51.7577 13.564 51.6884 13.46C51.6537 13.356 51.6364 13.2693 51.6364 13.2C51.6364 13.1653 51.6364 13.1307 51.6364 13.096C51.6364 12.9227 51.7231 12.7667 51.8964 12.628C52.1044 12.4893 52.3124 12.368 52.5204 12.264C52.6591 12.2293 52.7804 12.1947 52.8844 12.16C53.0231 12.1253 53.1271 12.108 53.1964 12.108C53.3351 12.108 53.4391 12.1253 53.5084 12.16C53.6124 12.1947 53.7164 12.2813 53.8204 12.42C53.9244 12.5587 54.0284 12.8013 54.1324 13.148C54.2364 13.46 54.3924 13.8933 54.6004 14.448C55.7097 17.7067 56.4031 20.688 56.6804 23.392C56.9924 26.0613 57.1484 27.8293 57.1484 28.696C57.1484 32.4053 56.4897 35.1267 55.1724 36.86C53.8551 38.628 52.3124 39.512 50.5444 39.512C49.4351 39.512 48.4124 39.2347 47.4764 38.68C46.5751 38.1253 45.8124 37.5187 45.1884 36.86C44.6337 36.2707 44.2004 35.716 43.8884 35.196C43.5764 34.7107 43.4204 34.3987 43.4204 34.26C43.4204 34.1213 43.4724 33.9827 43.5764 33.844C43.6804 33.74 43.7844 33.6707 43.8884 33.636C43.9231 33.636 43.9577 33.636 43.9924 33.636C44.0271 33.636 44.0444 33.636 44.0444 33.636C44.0791 33.636 44.1137 33.6533 44.1484 33.688C44.2524 33.7227 44.3737 33.8267 44.5124 34C44.6857 34.208 44.9631 34.5547 45.3444 35.04C46.3497 36.3573 47.2684 37.224 48.1004 37.64C48.9324 38.056 49.7297 38.264 50.4924 38.264C51.9831 38.264 53.0751 37.7093 53.7684 36.6C54.4964 35.5253 54.9817 34.312 55.2244 32.96C55.3284 32.4053 55.3977 31.8333 55.4324 31.244C55.4671 30.6893 55.4844 30.1867 55.4844 29.736C55.4844 28.3493 55.4151 27.0493 55.2764 25.836C55.1377 24.588 54.9817 23.4787 54.8084 22.508C54.6697 21.7453 54.5311 21.1213 54.3924 20.636C54.2884 20.116 54.2191 19.7867 54.1844 19.648ZM53.4044 17.204C53.4044 17.1693 53.3697 17.0653 53.3004 16.892C53.2657 16.684 53.2137 16.476 53.1444 16.268C53.0404 16.0253 52.9191 15.8173 52.7804 15.644C52.6764 15.436 52.5551 15.332 52.4164 15.332C52.0697 15.332 51.6537 15.592 51.1684 16.112C50.6831 16.5973 50.1804 17.204 49.6604 17.932C49.3831 18.348 49.1057 18.7987 48.8284 19.284C48.5511 19.7347 48.2911 20.1853 48.0484 20.636C47.4937 21.676 47.0257 22.664 46.6444 23.6C46.2977 24.5013 46.1244 25.16 46.1244 25.576C46.1244 25.6453 46.1244 25.7147 46.1244 25.784C46.1591 25.8533 46.2284 25.888 46.3324 25.888C46.5404 25.888 46.9737 25.628 47.6324 25.108C48.3257 24.5533 49.0537 23.8773 49.8164 23.08C50.1284 22.7333 50.4404 22.3693 50.7524 21.988C51.0644 21.6067 51.3591 21.2253 51.6364 20.844C52.1564 20.1853 52.5724 19.544 52.8844 18.92C53.2311 18.2613 53.4044 17.6893 53.4044 17.204ZM74.2808 21.676C74.3154 21.5373 74.3501 21.3987 74.3848 21.26C74.4541 21.0867 74.5061 20.9307 74.5408 20.792C74.7488 20.0987 74.9741 19.44 75.2168 18.816C75.4594 18.1573 75.7541 17.516 76.1008 16.892C76.2741 16.6493 76.4474 16.3893 76.6208 16.112C76.8288 15.8347 77.0368 15.5573 77.2448 15.28C77.5568 14.8987 77.9034 14.5347 78.2848 14.188C78.6661 13.8067 79.0474 13.512 79.4288 13.304C79.6368 13.1653 79.8448 13.0613 80.0528 12.992C80.2954 12.9227 80.5208 12.888 80.7288 12.888C81.2141 12.888 81.5781 13.044 81.8208 13.356C82.0981 13.668 82.2714 14.0147 82.3408 14.396C82.3408 14.4307 82.3408 14.4827 82.3408 14.552C82.3408 14.5867 82.3408 14.6213 82.3408 14.656C82.3408 14.8987 82.2888 15.0893 82.1848 15.228C82.0808 15.3667 81.9594 15.4533 81.8208 15.488C81.7514 15.5227 81.6648 15.5573 81.5608 15.592C81.4914 15.592 81.4394 15.592 81.4048 15.592C81.1621 15.592 80.9714 15.54 80.8328 15.436C80.7288 15.332 80.6421 15.2107 80.5728 15.072C80.5381 15.0373 80.5034 15.0027 80.4688 14.968C80.4688 14.8987 80.4514 14.8467 80.4168 14.812C80.3821 14.708 80.3474 14.6213 80.3128 14.552C80.3128 14.4827 80.2954 14.4307 80.2608 14.396C80.2261 14.3613 80.1914 14.344 80.1568 14.344C80.1568 14.3093 80.1394 14.292 80.1048 14.292C80.0008 14.292 79.7061 14.4827 79.2208 14.864C78.7701 15.2107 78.2154 15.8693 77.5568 16.84C77.4874 16.944 77.4181 17.048 77.3488 17.152C77.2794 17.256 77.2274 17.36 77.1928 17.464C76.4648 18.712 76.0141 19.8733 75.8408 20.948C75.6674 22.0227 75.5808 22.6293 75.5808 22.768C75.5808 22.9413 75.5981 23.2187 75.6328 23.6C75.6674 23.9813 75.7194 24.38 75.7888 24.796C75.8234 24.9347 75.8581 25.0733 75.8928 25.212C75.9274 25.316 75.9621 25.4373 75.9968 25.576C75.9968 25.576 76.0141 25.628 76.0488 25.732C76.0834 25.836 76.1181 25.9573 76.1528 26.096C76.1528 26.096 76.1528 26.1133 76.1528 26.148C76.1874 26.2867 76.2221 26.408 76.2568 26.512C76.2914 26.616 76.3088 26.6853 76.3088 26.72C76.3088 26.7893 76.2914 26.8587 76.2568 26.928C76.2221 26.9973 76.1874 27.084 76.1528 27.188C76.0834 27.292 75.9794 27.396 75.8408 27.5C75.7368 27.604 75.6154 27.6733 75.4768 27.708C75.4421 27.7427 75.4074 27.76 75.3728 27.76C75.3381 27.76 75.3034 27.76 75.2688 27.76C75.0261 27.76 74.8354 27.708 74.6968 27.604C74.5928 27.5 74.4888 27.3093 74.3848 27.032C74.3154 26.8933 74.2461 26.72 74.1768 26.512C74.1421 26.304 74.0901 26.0787 74.0208 25.836C73.8128 25.0387 73.5874 24.2587 73.3448 23.496C73.1021 22.7333 72.8421 22.0227 72.5648 21.364C72.1834 20.324 71.8021 19.44 71.4208 18.712C71.0741 17.984 70.7968 17.4813 70.5888 17.204C70.5541 17.1693 70.5021 17.1173 70.4328 17.048C70.3634 16.9787 70.2768 16.9093 70.1728 16.84C70.1728 16.84 70.1554 16.84 70.1208 16.84C70.1208 16.8053 70.1208 16.788 70.1208 16.788C70.0168 16.7187 69.9301 16.6493 69.8608 16.58C69.7914 16.476 69.7568 16.4067 69.7568 16.372C69.7568 16.3027 69.7741 16.2507 69.8088 16.216C69.8434 16.1467 69.8954 16.0773 69.9648 16.008C70.0688 15.904 70.1728 15.8173 70.2768 15.748C70.4154 15.644 70.5368 15.5573 70.6408 15.488C70.7794 15.4187 70.9008 15.3667 71.0048 15.332C71.1434 15.2973 71.2648 15.28 71.3688 15.28C71.6461 15.28 71.8714 15.4013 72.0448 15.644C72.2181 15.852 72.3741 16.1293 72.5128 16.476C72.5474 16.5453 72.5648 16.6147 72.5648 16.684C72.5994 16.7187 72.6341 16.7707 72.6688 16.84C72.7381 17.048 72.8421 17.3773 72.9808 17.828C73.1541 18.2787 73.3274 18.764 73.5008 19.284C73.6394 19.804 73.7781 20.2893 73.9168 20.74C74.0901 21.1907 74.2114 21.5027 74.2808 21.676ZM85.2418 22.508C85.2418 22.5773 85.2418 22.664 85.2418 22.768C85.2418 22.8373 85.2418 22.924 85.2418 23.028C85.2418 23.0973 85.2418 23.1667 85.2418 23.236C85.2418 23.3053 85.2418 23.3747 85.2418 23.444C85.2765 24.172 85.4498 24.848 85.7618 25.472C86.1085 26.096 86.6805 26.408 87.4778 26.408C87.6858 26.408 87.8765 26.3907 88.0498 26.356C88.2578 26.3213 88.4658 26.2693 88.6738 26.2C89.0551 26.0613 89.4191 25.888 89.7658 25.68C90.1471 25.4373 90.4938 25.1947 90.8058 24.952C91.0485 24.8133 91.2565 24.6747 91.4298 24.536C91.6378 24.3627 91.8285 24.2067 92.0018 24.068C92.0711 24.0333 92.1231 23.9987 92.1578 23.964C92.2271 23.8947 92.3138 23.8253 92.4178 23.756C92.4525 23.7213 92.4871 23.6867 92.5218 23.652C92.5565 23.6173 92.5911 23.6 92.6258 23.6C92.7298 23.496 92.8338 23.4267 92.9378 23.392C93.0765 23.3227 93.1805 23.288 93.2498 23.288C93.3538 23.288 93.4405 23.34 93.5098 23.444C93.5791 23.5133 93.6138 23.6 93.6138 23.704C93.6138 23.912 93.5098 24.1373 93.3018 24.38C93.1285 24.588 92.8858 24.8307 92.5738 25.108C91.3605 26.1827 90.3378 26.8933 89.5058 27.24C88.6738 27.5867 87.9111 27.76 87.2178 27.76C86.1085 27.76 85.2938 27.448 84.7738 26.824C84.2538 26.2 83.9071 25.5067 83.7338 24.744C83.6645 24.432 83.6125 24.12 83.5778 23.808C83.5431 23.4613 83.5258 23.1493 83.5258 22.872C83.5258 22.3173 83.5605 21.728 83.6298 21.104C83.6991 20.4453 83.8205 19.7693 83.9938 19.076C84.3405 17.516 84.9125 16.0947 85.7098 14.812C86.5071 13.4947 87.5298 12.836 88.7778 12.836C88.8818 12.836 88.9685 12.8533 89.0378 12.888C89.1418 12.888 89.2458 12.9053 89.3498 12.94C89.6271 13.0093 89.8871 13.1827 90.1298 13.46C90.3725 13.7027 90.4938 14.1013 90.4938 14.656C90.4938 15.176 90.3898 15.7653 90.1818 16.424C89.9738 17.048 89.6791 17.672 89.2978 18.296C88.8471 19.0933 88.2751 19.856 87.5818 20.584C86.8885 21.312 86.1085 21.9533 85.2418 22.508ZM85.2418 20.792C85.7271 20.48 86.1778 20.0813 86.5938 19.596C87.0445 19.076 87.4431 18.5387 87.7898 17.984C88.1711 17.4293 88.4658 16.892 88.6738 16.372C88.8818 15.852 88.9858 15.436 88.9858 15.124C88.9858 15.0893 88.9858 15.0373 88.9858 14.968C88.9858 14.8987 88.9685 14.812 88.9338 14.708C88.8991 14.604 88.8298 14.5173 88.7258 14.448C88.6565 14.344 88.5351 14.292 88.3618 14.292C88.3271 14.292 88.2925 14.292 88.2578 14.292C88.2231 14.292 88.1885 14.3093 88.1538 14.344C87.7031 14.448 87.2698 14.916 86.8538 15.748C86.4378 16.5453 86.0911 17.4293 85.8138 18.4C85.6751 18.816 85.5538 19.232 85.4498 19.648C85.3805 20.064 85.3111 20.4453 85.2418 20.792ZM97.4452 17.308C97.4452 19.9773 97.6705 22.196 98.1212 23.964C98.6065 25.732 99.1785 26.616 99.8372 26.616C99.9412 26.616 100.028 26.5987 100.097 26.564C100.201 26.5293 100.305 26.4773 100.409 26.408C100.964 26.0267 101.484 25.2813 101.969 24.172C102.454 23.028 102.784 21.7973 102.957 20.48C103.026 20.168 103.061 19.856 103.061 19.544C103.096 19.232 103.113 18.92 103.113 18.608C103.113 18.0187 103.061 17.672 102.957 17.568C102.888 17.4293 102.766 17.36 102.593 17.36C102.558 17.36 102.524 17.36 102.489 17.36C102.212 17.3253 101.986 17.2733 101.813 17.204C101.64 17.1347 101.553 16.9613 101.553 16.684C101.553 16.4067 101.64 16.1987 101.813 16.06C101.986 15.8867 102.177 15.7653 102.385 15.696C102.558 15.6267 102.732 15.592 102.905 15.592C103.078 15.5573 103.182 15.54 103.217 15.54C103.598 15.54 103.91 15.7133 104.153 16.06C104.43 16.4067 104.569 17.204 104.569 18.452C104.569 18.972 104.517 19.596 104.413 20.324C104.309 21.0173 104.17 21.728 103.997 22.456C103.616 23.8427 103.061 25.108 102.333 26.252C101.64 27.396 100.756 27.968 99.6812 27.968C98.9185 27.968 98.3118 27.708 97.8612 27.188C97.4105 26.668 97.0638 26.096 96.8212 25.472C96.6825 25.0907 96.5612 24.7267 96.4572 24.38C96.3878 24.0333 96.3358 23.7387 96.3012 23.496C96.0932 22.4213 95.9198 21.208 95.7812 19.856C95.6772 18.504 95.6252 16.996 95.6252 15.332C95.6252 15.0893 95.6252 14.8987 95.6252 14.76C95.6598 14.5867 95.7292 14.4133 95.8332 14.24C95.8678 14.24 95.8852 14.2227 95.8852 14.188C95.9198 14.1533 95.9545 14.1187 95.9892 14.084C96.0585 13.98 96.1452 13.8933 96.2492 13.824C96.3532 13.72 96.4572 13.6333 96.5612 13.564C96.6998 13.4947 96.8385 13.4253 96.9772 13.356C97.1158 13.2867 97.2372 13.252 97.3412 13.252C97.4452 13.252 97.5318 13.2867 97.6012 13.356C97.7052 13.4253 97.7918 13.512 97.8612 13.616C97.8612 13.6507 97.8612 13.6853 97.8612 13.72C97.8958 13.7547 97.9132 13.7893 97.9132 13.824C97.9132 13.8587 97.8958 13.9453 97.8612 14.084C97.8265 14.2227 97.7918 14.3787 97.7572 14.552C97.7572 14.552 97.7572 14.5693 97.7572 14.604C97.7225 14.7427 97.6878 14.8813 97.6532 15.02C97.6185 15.124 97.6012 15.1933 97.6012 15.228C97.5665 15.54 97.5318 15.8693 97.4972 16.216C97.4625 16.5627 97.4452 16.9267 97.4452 17.308ZM110.33 20.792C110.33 21.0693 110.33 21.468 110.33 21.988C110.365 22.4733 110.4 22.9933 110.434 23.548C110.538 24.3107 110.677 25.0213 110.85 25.68C111.058 26.304 111.37 26.6507 111.786 26.72C111.96 26.7547 112.081 26.7893 112.15 26.824C112.254 26.824 112.341 26.8413 112.41 26.876C112.514 26.876 112.566 26.9107 112.566 26.98C112.601 27.0147 112.618 27.0667 112.618 27.136C112.618 27.344 112.514 27.5 112.306 27.604C112.133 27.7427 111.942 27.8467 111.734 27.916C111.596 27.9507 111.474 27.968 111.37 27.968C111.266 28.0027 111.18 28.02 111.11 28.02C110.66 28.02 110.296 27.8813 110.018 27.604C109.776 27.3267 109.602 27.0147 109.498 26.668C109.394 26.46 109.325 26.252 109.29 26.044C109.256 25.836 109.221 25.6627 109.186 25.524C109.082 25.0733 108.996 24.5707 108.926 24.016C108.892 23.4613 108.857 22.872 108.822 22.248C108.788 21.624 108.753 21.0173 108.718 20.428C108.718 19.804 108.718 19.2667 108.718 18.816C108.718 18.6427 108.718 18.3827 108.718 18.036C108.718 17.6893 108.736 17.3253 108.77 16.944C108.805 16.4933 108.84 16.0773 108.874 15.696C108.944 15.3147 109.048 15.0547 109.186 14.916C109.221 14.8813 109.256 14.8467 109.29 14.812C109.36 14.7773 109.429 14.7253 109.498 14.656C109.602 14.5867 109.706 14.5347 109.81 14.5C109.949 14.4307 110.07 14.3787 110.174 14.344C110.278 14.3093 110.365 14.292 110.434 14.292C110.504 14.2573 110.573 14.24 110.642 14.24C110.816 14.24 110.937 14.292 111.006 14.396C111.11 14.4653 111.162 14.5693 111.162 14.708C111.162 14.7773 111.145 14.8813 111.11 15.02C111.076 15.1587 111.041 15.2973 111.006 15.436C110.972 15.436 110.954 15.4533 110.954 15.488C110.954 15.488 110.954 15.5053 110.954 15.54C110.92 15.6787 110.868 15.8173 110.798 15.956C110.764 16.06 110.746 16.1293 110.746 16.164C110.642 16.6493 110.538 17.256 110.434 17.984C110.365 18.6773 110.33 19.6133 110.33 20.792ZM110.85 9.144C110.85 9.21333 110.85 9.3 110.85 9.404C110.85 9.47333 110.85 9.54267 110.85 9.612C110.85 9.716 110.85 9.82 110.85 9.924C110.885 9.99333 110.902 10.0627 110.902 10.132C110.902 10.1667 110.902 10.2187 110.902 10.288C110.937 10.3227 110.954 10.3573 110.954 10.392C110.954 10.4613 110.954 10.5307 110.954 10.6C110.989 10.6347 111.006 10.6693 111.006 10.704C111.006 10.704 111.006 10.7213 111.006 10.756C111.006 10.7907 111.006 10.808 111.006 10.808C110.972 10.912 110.885 10.9987 110.746 11.068C110.642 11.1373 110.469 11.172 110.226 11.172C109.845 11.172 109.585 10.9987 109.446 10.652C109.308 10.2707 109.238 9.17867 109.238 7.376C109.238 7.064 109.342 6.82133 109.55 6.648C109.793 6.44 110.209 6.336 110.798 6.336C110.833 6.336 110.85 6.336 110.85 6.336C110.885 6.336 110.902 6.336 110.902 6.336C111.006 6.37067 111.093 6.40533 111.162 6.44C111.232 6.47467 111.266 6.544 111.266 6.648C111.266 6.752 111.249 6.856 111.214 6.96C111.214 7.064 111.197 7.168 111.162 7.272C111.128 7.30667 111.11 7.34133 111.11 7.376C111.11 7.41067 111.093 7.44533 111.058 7.48C111.058 7.54933 111.041 7.61867 111.006 7.688C111.006 7.75733 110.989 7.82667 110.954 7.896C110.92 8.13867 110.885 8.34667 110.85 8.52C110.85 8.65867 110.85 8.81467 110.85 8.988C110.85 8.988 110.85 9.00533 110.85 9.04C110.85 9.07467 110.85 9.10933 110.85 9.144ZM125.589 17.152C125.589 17.3253 125.537 17.4813 125.433 17.62C125.329 17.7587 125.19 17.8627 125.017 17.932C124.948 17.9667 124.861 18.0013 124.757 18.036C124.653 18.0707 124.584 18.088 124.549 18.088C124.48 18.088 124.428 18.088 124.393 18.088C124.358 18.088 124.324 18.0707 124.289 18.036C124.22 17.9667 124.133 17.8627 124.029 17.724C123.96 17.5853 123.838 17.36 123.665 17.048C123.457 16.7013 123.197 16.4067 122.885 16.164C122.573 15.8867 122.244 15.6613 121.897 15.488C121.55 15.28 121.204 15.1413 120.857 15.072C120.545 14.968 120.302 14.916 120.129 14.916C120.094 14.916 120.06 14.916 120.025 14.916C119.99 14.916 119.956 14.9333 119.921 14.968C119.852 14.968 119.782 15.0027 119.713 15.072C119.644 15.1067 119.609 15.176 119.609 15.28C119.609 15.4533 119.748 15.8173 120.025 16.372C120.337 16.892 120.684 17.464 121.065 18.088C121.1 18.1573 121.134 18.2267 121.169 18.296C121.204 18.3307 121.238 18.3653 121.273 18.4C121.585 18.92 121.88 19.4053 122.157 19.856C122.434 20.272 122.642 20.584 122.781 20.792C123.821 22.2827 124.532 23.34 124.913 23.964C125.329 24.588 125.554 25.108 125.589 25.524C125.624 25.628 125.641 25.7147 125.641 25.784C125.641 25.8533 125.641 25.9227 125.641 25.992C125.641 26.6507 125.381 27.188 124.861 27.604C124.341 28.0547 123.63 28.28 122.729 28.28C122.625 28.28 122.504 28.28 122.365 28.28C122.261 28.28 122.157 28.2627 122.053 28.228C120.597 28.0893 119.228 27.6213 117.945 26.824C116.662 25.992 115.813 25.0907 115.397 24.12C115.328 23.9467 115.276 23.7733 115.241 23.6C115.206 23.4267 115.189 23.2533 115.189 23.08C115.189 22.6987 115.276 22.3867 115.449 22.144C115.622 21.9013 115.796 21.728 115.969 21.624C116.073 21.5893 116.16 21.572 116.229 21.572C116.298 21.5373 116.368 21.52 116.437 21.52C116.576 21.52 116.68 21.5547 116.749 21.624C116.818 21.6587 116.853 21.7107 116.853 21.78C116.888 21.8147 116.905 21.8493 116.905 21.884C116.905 21.884 116.905 21.9013 116.905 21.936C116.905 21.9707 116.888 22.0573 116.853 22.196C116.818 22.3 116.784 22.404 116.749 22.508C116.749 22.508 116.749 22.5253 116.749 22.56C116.714 22.6987 116.68 22.82 116.645 22.924C116.61 23.028 116.593 23.0973 116.593 23.132C116.593 23.2013 116.593 23.2707 116.593 23.34C116.628 23.4093 116.645 23.4787 116.645 23.548C116.818 24.1027 117.252 24.64 117.945 25.16C118.673 25.68 119.453 26.1133 120.285 26.46C120.701 26.6333 121.117 26.772 121.533 26.876C121.984 26.98 122.382 27.032 122.729 27.032C123.11 27.032 123.388 26.98 123.561 26.876C123.769 26.772 123.908 26.6507 123.977 26.512C123.977 26.4773 123.977 26.4427 123.977 26.408C124.012 26.3387 124.029 26.2867 124.029 26.252C124.029 26.044 123.908 25.732 123.665 25.316C123.457 24.8653 123.197 24.3973 122.885 23.912C122.85 23.8427 122.798 23.7733 122.729 23.704C122.694 23.6 122.66 23.5133 122.625 23.444C122.382 23.0973 122.157 22.768 121.949 22.456C121.741 22.1093 121.568 21.8493 121.429 21.676C119.938 19.5267 118.933 18.036 118.413 17.204C117.893 16.3373 117.633 15.6093 117.633 15.02C117.633 14.9853 117.633 14.968 117.633 14.968C117.633 14.5867 117.754 14.2747 117.997 14.032C118.24 13.7893 118.69 13.668 119.349 13.668C119.418 13.668 119.47 13.668 119.505 13.668C119.574 13.668 119.626 13.668 119.661 13.668C120.736 13.7373 121.758 14.0147 122.729 14.5C123.7 14.9507 124.445 15.4707 124.965 16.06C125.138 16.2333 125.277 16.424 125.381 16.632C125.485 16.8053 125.554 16.9787 125.589 17.152ZM132.88 27.708C132.88 28.2973 132.863 28.9907 132.828 29.788C132.793 30.62 132.724 31.4693 132.62 32.336C132.412 34.0347 131.996 35.5947 131.372 37.016C130.783 38.472 129.812 39.2 128.46 39.2C127.42 39.2 126.588 38.8187 125.964 38.056C125.305 37.328 124.803 36.5133 124.456 35.612C124.144 34.8493 123.936 34.1213 123.832 33.428C123.728 32.7693 123.676 32.336 123.676 32.128C123.676 32.0933 123.676 32.0413 123.676 31.972C123.676 31.9027 123.693 31.8333 123.728 31.764C123.763 31.6253 123.832 31.504 123.936 31.4C124.005 31.3307 124.127 31.296 124.3 31.296C124.404 31.296 124.491 31.3133 124.56 31.348C124.629 31.3827 124.681 31.4693 124.716 31.608C124.785 31.712 124.855 31.9027 124.924 32.18C124.993 32.4573 125.08 32.8213 125.184 33.272C125.184 33.3413 125.253 33.6013 125.392 34.052C125.496 34.5027 125.669 34.988 125.912 35.508C126.189 36.0973 126.536 36.6173 126.952 37.068C127.333 37.5533 127.836 37.796 128.46 37.796C128.564 37.796 128.668 37.7787 128.772 37.744C128.911 37.744 129.049 37.7093 129.188 37.64C129.431 37.536 129.656 37.3107 129.864 36.964C130.107 36.6173 130.315 36.08 130.488 35.352C130.869 33.8613 131.095 32.4227 131.164 31.036C131.233 29.684 131.268 28.6787 131.268 28.02C131.268 25.524 131.199 23.4613 131.06 21.832C130.921 20.168 130.765 18.8507 130.592 17.88C130.488 17.3253 130.384 16.8747 130.28 16.528C130.176 16.1467 130.089 15.8693 130.02 15.696C129.951 15.4187 129.899 15.2453 129.864 15.176C129.829 15.1067 129.812 15.0547 129.812 15.02C129.812 14.9853 129.812 14.968 129.812 14.968C129.812 14.7947 129.899 14.6733 130.072 14.604C130.245 14.5 130.436 14.4133 130.644 14.344C130.817 14.2747 130.991 14.24 131.164 14.24C131.337 14.2053 131.424 14.188 131.424 14.188C131.563 14.188 131.667 14.2227 131.736 14.292C131.805 14.3613 131.857 14.5173 131.892 14.76C132.169 16.1813 132.377 17.62 132.516 19.076C132.655 20.4973 132.741 21.936 132.776 23.392C132.811 24.12 132.828 24.848 132.828 25.576C132.863 26.2693 132.88 26.9627 132.88 27.656V27.708ZM130.488 10.132C130.488 10.1667 130.488 10.2013 130.488 10.236C130.488 10.548 130.453 10.7907 130.384 10.964C130.315 11.1373 130.089 11.224 129.708 11.224C129.5 11.224 129.344 11.1893 129.24 11.12C129.136 11.0507 129.049 10.86 128.98 10.548C128.98 10.4787 128.963 10.392 128.928 10.288C128.928 10.184 128.911 10.0627 128.876 9.924C128.841 9.75067 128.789 9.56 128.72 9.352C128.685 9.144 128.633 8.936 128.564 8.728C128.495 8.55467 128.425 8.38133 128.356 8.208C128.287 8.03467 128.217 7.87867 128.148 7.74C128.148 7.70533 128.113 7.65333 128.044 7.584C128.009 7.51467 127.975 7.428 127.94 7.324C127.94 7.324 127.94 7.30667 127.94 7.272C127.871 7.20267 127.819 7.13333 127.784 7.064C127.749 6.96 127.732 6.89067 127.732 6.856C127.732 6.71733 127.784 6.61333 127.888 6.544C128.027 6.47467 128.148 6.42267 128.252 6.388C128.356 6.35333 128.46 6.336 128.564 6.336C128.668 6.336 128.737 6.336 128.772 6.336C129.119 6.336 129.344 6.388 129.448 6.492C129.587 6.596 129.691 6.73467 129.76 6.908C129.795 6.94267 129.812 6.99467 129.812 7.064C129.847 7.09867 129.864 7.13333 129.864 7.168C130.107 7.96533 130.263 8.64133 130.332 9.196C130.436 9.75067 130.488 10.0627 130.488 10.132ZM142.084 14.344C142.118 14.3093 142.153 14.292 142.188 14.292C142.257 14.2573 142.326 14.2227 142.396 14.188C142.5 14.1187 142.638 14.0667 142.812 14.032C142.985 13.9973 143.176 13.98 143.384 13.98C143.522 13.98 143.661 13.9973 143.8 14.032C143.973 14.032 144.146 14.0493 144.32 14.084C145.29 14.3613 146.174 15.0027 146.972 16.008C147.769 17.0133 148.168 18.296 148.168 19.856C148.168 20.2373 148.133 20.636 148.064 21.052C147.994 21.4333 147.908 21.8147 147.804 22.196C147.388 23.548 146.66 24.796 145.62 25.94C144.58 27.0493 143.262 27.604 141.668 27.604C140.073 27.604 138.86 26.9453 138.028 25.628C137.196 24.3107 136.78 22.82 136.78 21.156C136.78 19.388 137.178 17.8453 137.976 16.528C138.808 15.176 139.709 14.3613 140.68 14.084C140.784 14.0493 140.888 14.032 140.992 14.032C141.096 13.9973 141.2 13.98 141.304 13.98C141.477 13.98 141.616 14.0147 141.72 14.084C141.824 14.1187 141.91 14.1707 141.98 14.24C142.014 14.2747 142.032 14.3093 142.032 14.344C142.066 14.344 142.084 14.344 142.084 14.344ZM142.396 15.28C142.361 15.5573 142.24 15.8173 142.032 16.06C141.858 16.268 141.668 16.372 141.46 16.372C141.425 16.372 141.373 16.372 141.304 16.372C141.269 16.3373 141.234 16.3027 141.2 16.268C141.2 16.268 141.182 16.268 141.148 16.268C141.148 16.2333 141.148 16.216 141.148 16.216C141.044 16.1467 140.957 16.0773 140.888 16.008C140.853 15.9387 140.801 15.8867 140.732 15.852C140.697 15.852 140.645 15.852 140.576 15.852C140.541 15.8173 140.489 15.8 140.42 15.8C140.316 15.8 140.177 15.852 140.004 15.956C139.865 16.06 139.726 16.1987 139.588 16.372C139.276 16.7533 138.998 17.308 138.756 18.036C138.513 18.7293 138.392 19.544 138.392 20.48C138.392 22.144 138.721 23.4267 139.38 24.328C140.038 25.2293 140.749 25.784 141.512 25.992C141.65 26.0267 141.772 26.0613 141.876 26.096C142.014 26.096 142.136 26.096 142.24 26.096C142.378 26.096 142.517 26.096 142.656 26.096C142.829 26.0613 142.985 26.0093 143.124 25.94C143.956 25.6627 144.718 25.0387 145.412 24.068C146.14 23.0973 146.504 21.936 146.504 20.584C146.504 19.1627 146.157 17.9147 145.464 16.84C144.77 15.7653 143.869 15.2453 142.76 15.28C142.725 15.28 142.69 15.28 142.656 15.28C142.621 15.28 142.604 15.28 142.604 15.28C142.569 15.28 142.534 15.28 142.5 15.28C142.465 15.28 142.43 15.28 142.396 15.28ZM152.265 25.056C152.785 24.016 153.218 23.1493 153.565 22.456C153.946 21.728 154.293 21.052 154.605 20.428C154.639 20.3587 154.674 20.2893 154.709 20.22C154.743 20.1507 154.778 20.0813 154.813 20.012C155.055 19.596 155.315 19.1627 155.593 18.712C155.87 18.2267 156.165 17.6893 156.477 17.1C156.962 16.2333 157.343 15.5573 157.621 15.072C157.898 14.552 158.175 14.1707 158.453 13.928C158.591 13.7547 158.747 13.6507 158.921 13.616C159.094 13.5467 159.302 13.512 159.545 13.512C159.683 13.512 159.787 13.5467 159.857 13.616C159.926 13.6507 159.978 13.7027 160.013 13.772C160.047 13.8067 160.065 13.8413 160.065 13.876C160.065 13.876 160.065 13.8933 160.065 13.928C160.065 13.9973 160.047 14.1013 160.013 14.24C159.978 14.3787 159.943 14.5347 159.909 14.708C159.909 14.7427 159.891 14.7773 159.857 14.812C159.857 14.812 159.857 14.8293 159.857 14.864C159.822 15.0027 159.77 15.1413 159.701 15.28C159.666 15.4187 159.649 15.5053 159.649 15.54C159.614 15.7133 159.579 15.904 159.545 16.112C159.51 16.2853 159.493 16.4587 159.493 16.632C159.423 17.0133 159.371 17.3947 159.337 17.776C159.337 18.1227 159.337 18.4693 159.337 18.816C159.337 18.9893 159.354 19.4573 159.389 20.22C159.423 20.948 159.51 21.7453 159.649 22.612C159.822 23.5827 160.082 24.4667 160.429 25.264C160.81 26.0613 161.33 26.46 161.989 26.46C162.231 26.46 162.439 26.4253 162.613 26.356C162.821 26.252 163.011 26.1307 163.185 25.992C163.427 25.8187 163.583 25.7147 163.653 25.68C163.757 25.6453 163.826 25.628 163.861 25.628C163.999 25.628 164.103 25.68 164.173 25.784C164.242 25.8533 164.277 25.9573 164.277 26.096C164.277 26.1307 164.277 26.1653 164.277 26.2C164.277 26.2 164.277 26.2173 164.277 26.252C164.207 26.4947 163.965 26.7373 163.549 26.98C163.167 27.2227 162.751 27.3787 162.301 27.448C162.197 27.4827 162.093 27.5 161.989 27.5C161.919 27.5 161.833 27.5 161.729 27.5C160.446 27.5 159.527 26.8933 158.973 25.68C158.418 24.432 158.054 23.08 157.881 21.624C157.811 21.104 157.759 20.584 157.725 20.064C157.725 19.544 157.725 19.0587 157.725 18.608C157.725 18.4347 157.725 18.296 157.725 18.192C157.725 18.088 157.742 17.984 157.777 17.88C157.777 17.776 157.777 17.672 157.777 17.568C157.811 17.4293 157.829 17.2907 157.829 17.152C157.621 17.5333 157.257 18.2093 156.737 19.18C156.251 20.116 155.731 21.1213 155.177 22.196C155.142 22.2653 155.09 22.352 155.021 22.456C154.986 22.5253 154.951 22.5947 154.917 22.664C154.57 23.392 154.223 24.1027 153.877 24.796C153.53 25.4893 153.235 26.1133 152.993 26.668C152.785 27.1187 152.629 27.4307 152.525 27.604C152.421 27.7773 152.334 27.8987 152.265 27.968C152.23 28.0027 152.178 28.02 152.109 28.02C152.074 28.02 152.039 28.02 152.005 28.02C151.97 28.02 151.883 27.9853 151.745 27.916C151.641 27.8813 151.519 27.8293 151.381 27.76C151.207 27.6907 151.051 27.604 150.913 27.5C150.774 27.4307 150.705 27.3267 150.705 27.188C150.705 27.0147 150.739 26.356 150.809 25.212C150.913 24.0333 151.034 22.768 151.173 21.416C151.173 21.2773 151.173 21.1213 151.173 20.948C151.207 20.7747 151.225 20.6013 151.225 20.428C151.329 19.2147 151.433 18.14 151.537 17.204C151.641 16.2333 151.71 15.7133 151.745 15.644C151.779 15.5747 151.831 15.5227 151.901 15.488C152.005 15.4187 152.109 15.3493 152.213 15.28C152.282 15.2453 152.334 15.2107 152.369 15.176C152.438 15.1413 152.507 15.1067 152.577 15.072C152.785 14.968 152.975 14.8813 153.149 14.812C153.322 14.7427 153.409 14.708 153.409 14.708C153.443 14.708 153.461 14.7253 153.461 14.76C153.495 14.76 153.513 14.76 153.513 14.76C153.582 14.7947 153.634 14.8467 153.669 14.916C153.703 14.9853 153.721 15.0893 153.721 15.228C153.721 15.3667 153.686 15.5747 153.617 15.852C153.582 16.1293 153.478 16.7533 153.305 17.724C152.958 19.7 152.715 21.2427 152.577 22.352C152.438 23.4613 152.334 24.3627 152.265 25.056ZM182.887 14.344C182.887 14.2747 182.87 14.1707 182.835 14.032C182.8 13.8587 182.766 13.6853 182.731 13.512C182.731 13.512 182.714 13.512 182.679 13.512C182.679 13.4773 182.679 13.46 182.679 13.46C182.644 13.252 182.61 13.0613 182.575 12.888C182.54 12.7147 182.523 12.6107 182.523 12.576C182.523 12.368 182.61 12.1947 182.783 12.056C182.956 11.9173 183.147 11.8133 183.355 11.744C183.494 11.6747 183.615 11.64 183.719 11.64C183.858 11.6053 183.962 11.588 184.031 11.588C184.274 11.588 184.43 11.64 184.499 11.744C184.568 11.848 184.603 11.9693 184.603 12.108C184.603 12.1427 184.603 12.1773 184.603 12.212C184.603 12.2467 184.603 12.2813 184.603 12.316C184.603 13.1133 184.638 13.9973 184.707 14.968C184.776 15.9387 184.88 16.9267 185.019 17.932C185.262 19.7 185.574 21.364 185.955 22.924C186.336 24.4493 186.735 25.4893 187.151 26.044C187.186 26.0787 187.255 26.148 187.359 26.252C187.463 26.3213 187.584 26.408 187.723 26.512C187.758 26.512 187.792 26.5293 187.827 26.564C187.931 26.668 188.035 26.772 188.139 26.876C188.243 26.9453 188.295 26.9973 188.295 27.032C188.295 27.0667 188.278 27.1187 188.243 27.188C188.243 27.2227 188.226 27.2747 188.191 27.344C188.122 27.4133 188.035 27.4827 187.931 27.552C187.827 27.6213 187.688 27.656 187.515 27.656C187.03 27.656 186.614 27.5173 186.267 27.24C185.92 26.9627 185.66 26.6333 185.487 26.252C185.348 26.044 185.227 25.836 185.123 25.628C185.054 25.3853 185.002 25.1947 184.967 25.056C184.863 24.8133 184.742 24.4493 184.603 23.964C184.464 23.444 184.308 22.8373 184.135 22.144C184.031 21.624 183.927 21.0693 183.823 20.48C183.719 19.856 183.615 19.1973 183.511 18.504C183.303 18.8853 182.922 19.492 182.367 20.324C181.847 21.1213 181.258 21.9533 180.599 22.82C180.356 23.132 180.114 23.444 179.871 23.756C179.628 24.068 179.386 24.3627 179.143 24.64C178.484 25.4373 177.826 26.1133 177.167 26.668C176.543 27.2227 176.006 27.5 175.555 27.5C175.486 27.5 175.382 27.5 175.243 27.5C175.139 27.5 175.035 27.4653 174.931 27.396C174.758 27.3267 174.584 27.2053 174.411 27.032C174.272 26.8587 174.203 26.616 174.203 26.304C174.203 25.68 174.376 24.8827 174.723 23.912C175.104 22.9413 175.572 21.936 176.127 20.896C176.578 20.0987 177.063 19.3187 177.583 18.556C178.138 17.7587 178.692 17.048 179.247 16.424C179.836 15.7653 180.408 15.2453 180.963 14.864C181.552 14.448 182.072 14.24 182.523 14.24C182.592 14.24 182.662 14.2573 182.731 14.292C182.8 14.292 182.852 14.3093 182.887 14.344ZM182.991 16.528C182.991 16.32 182.922 16.1467 182.783 16.008C182.679 15.8347 182.506 15.748 182.263 15.748C181.916 15.748 181.483 15.9907 180.963 16.476C180.478 16.9267 179.975 17.516 179.455 18.244C179.143 18.6253 178.831 19.0413 178.519 19.492C178.242 19.9427 177.982 20.3933 177.739 20.844C177.15 21.8147 176.664 22.7507 176.283 23.652C175.902 24.5533 175.711 25.1947 175.711 25.576C175.711 25.576 175.711 25.5933 175.711 25.628C175.711 25.6627 175.711 25.68 175.711 25.68C175.746 25.7493 175.78 25.8013 175.815 25.836C175.85 25.8707 175.884 25.888 175.919 25.888C176.162 25.888 176.612 25.524 177.271 24.796C177.93 24.068 178.64 23.2187 179.403 22.248C179.542 22.0747 179.68 21.9013 179.819 21.728C179.958 21.52 180.096 21.3293 180.235 21.156C180.963 20.116 181.604 19.1627 182.159 18.296C182.714 17.3947 182.991 16.8053 182.991 16.528ZM199.73 17.152C199.73 17.3253 199.678 17.4813 199.574 17.62C199.47 17.7587 199.331 17.8627 199.158 17.932C199.088 17.9667 199.002 18.0013 198.898 18.036C198.794 18.0707 198.724 18.088 198.69 18.088C198.62 18.088 198.568 18.088 198.534 18.088C198.499 18.088 198.464 18.0707 198.43 18.036C198.36 17.9667 198.274 17.8627 198.17 17.724C198.1 17.5853 197.979 17.36 197.806 17.048C197.598 16.7013 197.338 16.4067 197.026 16.164C196.714 15.8867 196.384 15.6613 196.038 15.488C195.691 15.28 195.344 15.1413 194.998 15.072C194.686 14.968 194.443 14.916 194.27 14.916C194.235 14.916 194.2 14.916 194.166 14.916C194.131 14.916 194.096 14.9333 194.062 14.968C193.992 14.968 193.923 15.0027 193.854 15.072C193.784 15.1067 193.75 15.176 193.75 15.28C193.75 15.4533 193.888 15.8173 194.166 16.372C194.478 16.892 194.824 17.464 195.206 18.088C195.24 18.1573 195.275 18.2267 195.31 18.296C195.344 18.3307 195.379 18.3653 195.414 18.4C195.726 18.92 196.02 19.4053 196.298 19.856C196.575 20.272 196.783 20.584 196.922 20.792C197.962 22.2827 198.672 23.34 199.054 23.964C199.47 24.588 199.695 25.108 199.73 25.524C199.764 25.628 199.782 25.7147 199.782 25.784C199.782 25.8533 199.782 25.9227 199.782 25.992C199.782 26.6507 199.522 27.188 199.002 27.604C198.482 28.0547 197.771 28.28 196.87 28.28C196.766 28.28 196.644 28.28 196.506 28.28C196.402 28.28 196.298 28.2627 196.194 28.228C194.738 28.0893 193.368 27.6213 192.086 26.824C190.803 25.992 189.954 25.0907 189.538 24.12C189.468 23.9467 189.416 23.7733 189.382 23.6C189.347 23.4267 189.33 23.2533 189.33 23.08C189.33 22.6987 189.416 22.3867 189.59 22.144C189.763 21.9013 189.936 21.728 190.11 21.624C190.214 21.5893 190.3 21.572 190.37 21.572C190.439 21.5373 190.508 21.52 190.578 21.52C190.716 21.52 190.82 21.5547 190.89 21.624C190.959 21.6587 190.994 21.7107 190.994 21.78C191.028 21.8147 191.046 21.8493 191.046 21.884C191.046 21.884 191.046 21.9013 191.046 21.936C191.046 21.9707 191.028 22.0573 190.994 22.196C190.959 22.3 190.924 22.404 190.89 22.508C190.89 22.508 190.89 22.5253 190.89 22.56C190.855 22.6987 190.82 22.82 190.786 22.924C190.751 23.028 190.734 23.0973 190.734 23.132C190.734 23.2013 190.734 23.2707 190.734 23.34C190.768 23.4093 190.786 23.4787 190.786 23.548C190.959 24.1027 191.392 24.64 192.086 25.16C192.814 25.68 193.594 26.1133 194.426 26.46C194.842 26.6333 195.258 26.772 195.674 26.876C196.124 26.98 196.523 27.032 196.87 27.032C197.251 27.032 197.528 26.98 197.702 26.876C197.91 26.772 198.048 26.6507 198.118 26.512C198.118 26.4773 198.118 26.4427 198.118 26.408C198.152 26.3387 198.17 26.2867 198.17 26.252C198.17 26.044 198.048 25.732 197.806 25.316C197.598 24.8653 197.338 24.3973 197.026 23.912C196.991 23.8427 196.939 23.7733 196.87 23.704C196.835 23.6 196.8 23.5133 196.766 23.444C196.523 23.0973 196.298 22.768 196.09 22.456C195.882 22.1093 195.708 21.8493 195.57 21.676C194.079 19.5267 193.074 18.036 192.554 17.204C192.034 16.3373 191.774 15.6093 191.774 15.02C191.774 14.9853 191.774 14.968 191.774 14.968C191.774 14.5867 191.895 14.2747 192.138 14.032C192.38 13.7893 192.831 13.668 193.49 13.668C193.559 13.668 193.611 13.668 193.646 13.668C193.715 13.668 193.767 13.668 193.802 13.668C194.876 13.7373 195.899 14.0147 196.87 14.5C197.84 14.9507 198.586 15.4707 199.106 16.06C199.279 16.2333 199.418 16.424 199.522 16.632C199.626 16.8053 199.695 16.9787 199.73 17.152Z" fill="white"/>
</svg>
